<svg width="814" height="660" viewBox="0 0 814 660" fill="none" xmlns="http://www.w3.org/2000/svg">
<mask id="mask0_214_28" style="mask-type:alpha" maskUnits="userSpaceOnUse" x="0" y="0" width="814" height="660">
<rect width="814" height="660" fill="white"/>
</mask>
<g mask="url(#mask0_214_28)">
<g opacity="0.5">
<circle cx="1232.98" cy="407.195" r="488.667" transform="rotate(-30.0783 1232.98 407.195)" stroke="#E6E6E6" stroke-width="2"/>
<circle cx="1208.34" cy="375.334" r="488.667" transform="rotate(-30.0783 1208.34 375.334)" stroke="#E6E6E6" stroke-width="2"/>
<circle cx="1183.71" cy="343.474" r="488.667" transform="rotate(-30.0783 1183.71 343.474)" stroke="#E6E6E6" stroke-width="2"/>
<circle cx="1159.08" cy="311.614" r="488.667" transform="rotate(-30.0783 1159.08 311.614)" stroke="#E6E6E6" stroke-width="2"/>
<circle cx="1134.44" cy="279.754" r="488.667" transform="rotate(-30.0783 1134.44 279.754)" stroke="#E6E6E6" stroke-width="2"/>
<circle cx="1109.81" cy="247.893" r="488.667" transform="rotate(-30.0783 1109.81 247.893)" stroke="#E6E6E6" stroke-width="2"/>
<circle cx="1085.18" cy="216.033" r="488.667" transform="rotate(-30.0783 1085.18 216.033)" stroke="#E6E6E6" stroke-width="2"/>
<circle cx="1060.54" cy="184.173" r="488.667" transform="rotate(-30.0783 1060.54 184.173)" stroke="#E6E6E6" stroke-width="2"/>
<circle cx="1035.91" cy="152.313" r="488.667" transform="rotate(-30.0783 1035.91 152.313)" stroke="#E6E6E6" stroke-width="2"/>
<circle cx="1011.28" cy="120.452" r="488.667" transform="rotate(-30.0783 1011.28 120.452)" stroke="#E6E6E6" stroke-width="2"/>
<circle cx="986.645" cy="88.592" r="488.667" transform="rotate(-30.0783 986.645 88.592)" stroke="#E6E6E6" stroke-width="2"/>
<circle cx="962.012" cy="56.7317" r="488.667" transform="rotate(-30.0783 962.012 56.7317)" stroke="#E6E6E6" stroke-width="2"/>
<circle cx="937.375" cy="24.8714" r="488.667" transform="rotate(-30.0783 937.375 24.8714)" stroke="#E6E6E6" stroke-width="2"/>
<circle cx="912.745" cy="-6.98884" r="488.667" transform="rotate(-30.0783 912.745 -6.98884)" stroke="#E6E6E6" stroke-width="2"/>
<circle cx="888.108" cy="-38.8491" r="488.667" transform="rotate(-30.0783 888.108 -38.8491)" stroke="#E6E6E6" stroke-width="2"/>
<circle cx="863.477" cy="-70.7094" r="488.667" transform="rotate(-30.0783 863.477 -70.7094)" stroke="#E6E6E6" stroke-width="2"/>
<circle cx="838.844" cy="-102.57" r="488.667" transform="rotate(-30.0783 838.844 -102.57)" stroke="#E6E6E6" stroke-width="2"/>
<circle cx="814.209" cy="-134.43" r="488.667" transform="rotate(-30.0783 814.209 -134.43)" stroke="#E6E6E6" stroke-width="2"/>
<circle cx="789.577" cy="-166.29" r="488.667" transform="rotate(-30.0783 789.577 -166.29)" stroke="#E6E6E6" stroke-width="2"/>
<circle cx="764.942" cy="-198.15" r="488.667" transform="rotate(-30.0783 764.942 -198.15)" stroke="#E6E6E6" stroke-width="2"/>
<circle cx="740.309" cy="-230.011" r="488.667" transform="rotate(-30.0783 740.309 -230.011)" stroke="#E6E6E6" stroke-width="2"/>
<circle cx="715.676" cy="-261.871" r="488.667" transform="rotate(-30.0783 715.676 -261.871)" stroke="#E6E6E6" stroke-width="2"/>
<circle cx="691.041" cy="-293.731" r="488.667" transform="rotate(-30.0783 691.041 -293.731)" stroke="#E6E6E6" stroke-width="2"/>
<circle cx="666.409" cy="-325.591" r="488.667" transform="rotate(-30.0783 666.409 -325.591)" stroke="#E6E6E6" stroke-width="2"/>
</g>
</g>
</svg>
