<svg width="512" height="512" viewBox="0 0 512 512" fill="none" xmlns="http://www.w3.org/2000/svg">
<path d="M452.589 134.517C452.589 82.3169 410.272 40 358.072 40H355.407C308.287 40 273.3 83.6581 283.567 129.647C290.671 161.472 292 194.314 287.49 226.61L277.534 297.908C270.148 350.805 311.229 398.022 364.639 398.022C413.212 398.022 452.589 358.645 452.589 310.072V134.517Z" fill="black"/>
<path d="M59 209.496C59 157.295 101.317 114.979 153.517 114.979H156.181C203.302 114.979 238.289 158.637 228.022 204.625C220.918 236.45 219.589 269.293 224.099 301.588L234.055 372.887C241.441 425.784 200.36 473 146.95 473C98.3765 473 59 433.624 59 385.05V209.496Z" fill="black"/>
</svg>
